<svg width="1000" height="368" viewBox="0 0 1000 368" fill="none" xmlns="http://www.w3.org/2000/svg">
<path d="M494 51H495L496 52H498V53H499L498 54H497V53H495V52L494 51ZM512 90L511 89V88H512V89V90H513V91L512 90ZM491 69H490H489V68H491V69ZM494 67V69H493L492 68H491V67V66H494V67ZM497 65V64H496V63H497L498 64V65H497ZM486 65L485 64V63H488L489 64H490V65H486ZM496 58L495 57H496L497 58V59L496 58ZM495 53V54L494 55L493 54L492 53V52H494L495 53ZM500 85L499 86V87L498 86L497 87H496V88H495L494 87V85H493V84H491H490H489L488 83L487 84H485H484L485 83H484L483 84H482L481 83V85L480 86L479 85V84H478L476 85L475 86L474 87L473 86L472 85H470V87V89H466V90L468 91V92H466V93H465V95L464 96V98V99V100L463 101H462V103H461V104H459V105H458L457 106V107V108H456V109H455L454 108H453L452 109H449V110V111L448 112L447 111H446H445V110H444H442V108H441V107H440V106H439H437L436 107V108H435V107H434L432 106H431V105H432V104V103L433 102L434 101V98V97H436L437 96V95L438 94V93H437V94L436 93V92V89H439V88V87H441V86H442L443 85H444L445 84V83H444V82H443H442V81V80H443V79L442 78L443 77V76L445 75V74H446L447 75L449 74H450V73V72L451 71H450V70L451 67V66H453L452 65V64V62H451V61L452 60V57H451V56H452V55H453V52L454 51L455 50H456L457 49V48V47H458V48H460V49H461L462 48H463V47H465V48L466 47H467L468 48V49H469V48H470V47H471L472 48H474L475 47L476 48H485L486 49H487L488 51H491V52H490L488 51V52V53H490V54H491L492 55L493 56H494V57H493L492 56V57H494L495 58L496 59H494L495 60H497L496 61L495 62H493H492V61H491V60H490V59V61L491 62H490H489H481H485L484 63V64H485V65H486L487 66H489V67H488V68V69L487 70L486 69H485L486 70L487 71H489V72H491L492 73H493V74H492V75H491H493V74L494 75H493V76H491H495V77H494H493V78H494L495 79H496V80V82H497V83H498L500 85ZM619 319L620 320L621 321L622 320H623V321H624V322V323L625 322V321H626V320L627 319V318L628 317V316H631L632 315V314L634 313H635L636 312H637V313V314H639L640 313V312L641 313H642V314L641 315V316H640V317L639 316H638V317V318V319H639V320L640 321V322L639 323L638 324V326L636 327V328L634 330L633 331H632L631 332L630 333L629 334V335L628 336H622H621L620 337V338H619H617L615 340H614H613H612H611L610 339H609V340H608V339H609V337L610 336H612V335H614V334L613 333H612L611 334L610 333L611 331L612 330V329V328V325H613V324H614L615 323L616 322L617 321L618 320L619 319ZM602 301L603 302H600L599 303L598 304V305H597V303L599 302H600L601 301H602ZM555 332H556V334V335H555L554 336V337H552H550V338H549V339H548V338H547L544 337H543L542 336H541V335H540V334L539 333V332H538H537V331H536L535 330H534L533 329L532 328H531H529H528H527H526L525 327H523H521V326H520V325L519 324V323V322L520 321H522L523 320H531L532 319H533V320H536L539 318V319L540 320L541 321V322H544V324H545V325L546 326H547V325H549V326H550L551 327L552 328V330H553V331H555V332ZM534 305H535V306H534V307V308V309L533 308H532V307H533V306L532 305V304L533 305V306H534V305ZM531 303L532 304H531H530H529V305V306V307H527L528 306V305H527V304H528V303V302V301H529V302H531V303ZM606 298L605 300V301H604L602 300L601 301H600L599 300L600 299L601 298H602V297H604L605 298H606ZM599 298H600V299H599H597V300V301V302H596V301H595V302L596 304L595 305H594H593H592V306H590V307H585H584H581V308H580L579 309H577L576 310H575H574H573L572 311V310V309H569L568 308H567V309V310L566 311H565L564 310H563L562 311H559H558L557 310L556 309H555V310H554L553 309H552L551 308H550L549 309L548 308V309H547V308L546 309H545H544L543 308H542L541 309H539H538V310L537 309L536 308V304V303L537 302V301H538V302L539 301H540V300H543L544 299V298H547L548 297L549 298H552L551 297H552L553 298L554 299H559V300H560L561 301H564V302H565L566 303L567 304H569V305H570V304H571V303L572 302L573 303L574 302H579V301H580V302V303H582L584 305H589V304V303V302H590V301H591V300H595V299L597 298L598 297V296H597H596V297H595H594L595 296V295L596 294H597V295H598L599 296V298ZM607 344V345V346H606L605 347H604V348L603 349H602L599 350H598V351H595V348H596L597 347H600L601 346L602 345H603V344V343H604L606 342V341H607V342L606 343H607L606 344H607ZM578 341H579V343L578 344H577V345H574L573 344L576 342V341H578ZM608 336H609V337H608H607V339H606H605V338H606V337L607 336L608 335V336ZM617 297H618V298H617H615L614 299V300H613V301H612H611V302H610L611 303V304H610L609 303L608 304H607L606 303H605V304L604 303V304L603 303H604L605 302L606 301H607L608 300H609V299H608H606V298H608L609 297H610V298L609 299V300H611V299H610L611 298V299L612 298H611V297H612V298H613V297H614V296H615L616 297H617ZM625 297V298V299H624V300H623V301V302L622 303H621V304H620V303V302H619V301H618V302H617V301L618 300L619 299H620V300H621V299H622V298H623V297L624 296H625V297ZM641 297V299V300H637L634 301H632H631H630V302H629V301H628V302H627H626V301V300L627 299L628 298H629V297H628L627 298H626L627 297V296H628V295H630V296L631 297V296H641V297ZM586 301H587L588 302H587V303L586 302V301ZM574 298V299V300L573 299V298H574ZM572 345H571H570H572ZM425 105V107V108V109V110H424L423 111L421 112V113H420L419 114H418V115V116H420V117V118V119H419V120L418 121H417V122V123H416V124H415V125H414V126V128H413H412V129H411L410 128H409V129H408V130H409V131H410V133L411 135L410 136V138H409H408V139L407 140H406V141H407V142V143L406 144H405V143H404H403V144H402H400V145H399L397 146H396L393 148H392H391L389 149H388H387L386 148H384H383V149V150H381L379 151L378 152L377 153L375 154H374V155H373V156H374V157H373L372 158H371L370 159H369V160L368 161L367 162H366L365 163L364 164H363H362L361 165H360V166V167H362V168V169V170V175V176L364 181V183V185V186H365V187V188H364L363 189L362 190V191H361H360L359 192H358H357L356 194L355 195L354 194H355V193H354V191H352L350 192L348 193H347L346 192V191L347 190V189L346 188V187V186H345V185H346V184V183L345 182V179H344V178V176V172H343L342 171H341L340 170V169L341 168H342L343 166V161V159H342H341V158H340V157L341 156H340L339 155H338V154H337V153V152V151H336V152V153H335H334V152L333 151H331L330 152L329 151H328L327 148V147H328V148H332H331V147H330H329V146H331H330V145H328L327 146V145H326H325V144L324 142V141H325L324 140V139H323V138H326V139H327L326 138V137V135L325 134V133H326L328 134V133H327L326 132H325L324 129L323 128H321V126V125L320 124V123H321V122V121L320 120V119V118H319V117H321V116L322 115V114L321 111V110H324L325 109L326 107H327V106L326 107L325 108V109H324L323 110H322V109L323 108V104H324V103L327 101L328 100V99V98H329V97V96V95H331L333 94H334L335 93V94L334 95L333 96V97V98L334 99H335V101V102L336 103L337 104V105H338V106H340L341 107V108L342 109H343V110H345V111H346V112L347 113V114H349V115L350 116H351L352 117H354V116H355V117L356 116H357V115H358L359 114H361L366 113L369 114H371L372 115V114L374 113H375V114H378L380 112L381 111H383L384 108L385 107V106V105L387 104H389L390 103H402V104L401 105H400V106H401L402 105L403 106H405V107H408L409 108H412L413 109L414 110V109L417 107L418 106L419 105H424V106H425V105ZM316 168V167H318L317 168H316ZM326 159L325 160V159H326ZM327 157V158H326V157H327ZM321 165H322L321 166L320 167H319V166V165L320 164H321V165ZM337 156V157H336H335L334 158H333V159H332H331H330V158L331 157V153H335V154L336 153L337 154V156ZM834 218L842 208L822 201H821V200L822 199V198H823V197L825 196V194V193H826L830 190V192L831 193H832L833 192V191L834 192L833 193V194V196H834V197V198L835 199V198H836V199V200H842L843 201L844 200H847V199H848V198V197H849L850 196H851V195V194H852L853 193H855V192V191V190V189L856 188L857 187H858L860 186L861 185L862 184V182L863 181V180V179V178H866V177H867V178H869L870 179V178H872L873 177H875V176H879L880 175H881L880 174V173V172H879L878 171V169H879L883 168L885 166H886V165L892 163H894L895 164H896V165H897V166H900L903 168L906 169H909L910 170L911 172H912L913 173H914L917 174L921 176L923 177H925L926 178L929 179L931 180L932 181L936 180H939V181H940L941 182H943L942 181H943L945 182H947L950 183V184L949 185V186H950V185L951 186V185H954L955 186V193L954 198V205L955 209V233V259L954 260V261H953L954 262V263H953V264V265H952V266V267L953 268H952L953 269V270H954V271V315V314H952L947 309L945 305L944 304L943 303H942V302H941L940 301L936 298L935 296V295L936 294V293V292L937 291V292L938 291H937H936V294H935V295H927L926 296L924 297H922V296H920V295V294L919 295H917L915 297V298H914L913 297L912 296V295H913V294H914V293V291V290H915V289L916 288V286V285H917V283H915H914V281L913 280V279H912L911 278H910V277H909H915L918 278L919 277H917H916L915 276H914H912V275H911H910L908 273L907 272V270H909L910 271L911 270H915L916 271L917 272H919H918V271H917L915 270V269H912L911 268L910 267H909V266H911L912 267L910 265H909L908 264V263L905 261L904 259L903 258V256V255L902 254L901 252V251L902 250L900 249H899V248L901 247H902L903 246H902H901H900V247H899H898L897 248V247V245V244H898V243H897V241L896 242H895V241H894V239L893 240H892L891 239L892 238H891H890V237H889H888L887 236H886V235H885H884H883V234L882 233H881V232H880V233H879V232H878V231H877V232H876L875 231V230L873 231L872 232V231V230H871V231L870 230L868 229L867 228H865V227H864H863V226H860L859 225H858H857L856 224L855 223H852H851H850H849L848 222H845H843H840L835 219L834 218ZM911 268V269V270H910H909V269H908V268V267L909 268H911ZM913 299V300H914V301H913L909 300H907V299L908 298L909 297V296H912V298H913V299ZM914 283L915 284H917V285H916V286L915 287V289V290H913V293V294H912L911 295L910 296H909H908V298L906 299L905 300H904L903 301H902L900 300H891L889 301V300L890 295H891V294H892V292L894 289V288L895 287V286L896 285L897 284L901 282L904 281L906 280H912V281L913 283H914ZM873 169H874V170H873H870L869 171H867H866H865H864H863H862L861 172V171H860V170H858H857H856L855 169H854V168H852H851L850 167V168L849 167H848H847H846V166H845V165H846L848 166H857L858 167L860 166L861 167H862L863 168H872V169H873ZM842 163H843L842 164H838V163H842ZM836 155L835 156H834H833V155L832 154H833V153L834 152L835 153V154V155H836ZM863 156V157H861L860 158H859H858L857 157H855H854H853V156V154H852V150H851L850 151H849L846 149V150H845V149L844 148V146L845 147H848V148L850 147V148H851L852 149V148H854L855 150L857 151L858 152V153H859V154H860V155H862L864 156H863ZM409 302H407V301H408L409 302ZM375 267V268H376L378 269H379L380 268H381L382 269L383 271H386V270H391V271H392L393 270V271V272V273H394L395 274H394V275L395 276V277L393 276L394 277L395 278L396 277H397L398 278V279V280L397 281L396 282L397 283L398 284L401 285V286H403V287H406V288H409V287H417L418 286H420L421 285H422L423 286L424 287H427V288H430V289V290V291V292V293L429 296L428 300V301V302V303H429V301V302V304L430 305H432L433 306V307V308H432L430 307H428H429V306L428 305H425H424H423H422H421H420V304H419H418V303L417 304V303H416H415V302H414L413 301H412H411V300H410H409L408 299L407 298H403L402 299H401L400 300L399 301V300H398H397L396 301H395H393L392 300H390H389V299H388H387H386H382L381 298H380V299L379 298H378H377V299H376H375L376 300H375L374 299H373H372H370V298H369H368H367H365L364 297H363V298H362L360 297H361V296V295L362 294L364 293L365 292L366 291L367 292V291L368 290V288H367V287H366H365V286V285H366V284L365 283L366 281V280V278H368L370 279V278H371L372 277H373V276H374V275L373 274L374 273L373 272L374 271V269L375 267ZM452 271H451H450H449H448V272H447V273H446V272V271H445V270H446V269H450V270H452V271ZM395 247H396V248V249V250H395H394H393V249V248H394V247H395ZM422 271H423V272L422 273H421L420 274H419L418 275H419H415H414H413V276H412V277H411H406H405L404 276V275L403 276H404V277L398 276H396V275V274L395 275V274V273H396L397 272L398 271H399L400 270H421V271H422ZM433 275V276H431V275H433ZM428 274L429 275V276H428H427V275H426V274H428ZM458 275H459L458 276L457 277V276H456V275H457V276H458V275ZM702 298H700H699L700 297H702V298ZM718 297V298H717V297H716V298H715V297H714L715 296H717L718 297ZM693 296V297H692H691H690L692 296H693ZM682 293H683V294V295H681V294V293H682ZM759 285H760V286H759H758V287H757V286H758L759 285ZM757 283V284L756 283V284H754V283V282L755 283H757ZM761 281H760V282H759V283H758V282H757V281H761ZM763 279V280H762V279H763ZM769 266H770V267H769L768 268H769L768 269V267L769 266ZM831 264V265V266V267H830V268H829V267L830 266V265V264H831ZM829 261V262H828V263H827L826 262V261H825L824 260V259H825V258L826 259H827V260H828L829 261ZM833 258H834V259V261L833 262H832V261V260H833V259V258ZM824 258V259H823V258H822H821V257H820V256V255L819 256V253H820V254L821 253V254H822L821 255V256H823V258H824ZM793 245V246H792V245V244V243L793 244V245ZM783 243L784 244H783V243ZM683 209V210V211H682H681V210V209H683ZM690 199L691 200H690H688V199V198H689L690 199ZM693 196L694 197V198H693H691V197H692V196H693ZM697 192H698L697 193V194H694V193H695L696 192H697L696 191H697V192ZM700 295V296L699 297V298H698L697 297H695V296H694V295L695 294V295H700ZM759 295H761L760 296H759L758 297H757H755V298V299H754V300H753V299L754 298V297H756V296V295L757 296L758 295V294L759 295ZM734 290H735V291H734V292L733 293V294L731 293L729 291V289H730V288H732L733 289H734V290ZM675 287V288H674V287L673 288L672 287L671 288L670 289H669L668 290V291V292H667V291H664H662H661V290H660H658V291H657H656L655 293H654V292L655 291V290V289H656V288V287H657V286H659L662 287H663V286H665L666 285H668V284H671V285H672V286H675V287ZM687 283H688V284L687 285H686V286H685V285L686 284L685 283H687ZM771 277H770V278V279L771 280H770L771 281V282H770V283V285H769V286L768 287H767V288H766V289L765 290V291H764V292V293H763V292V291L762 292V293H759V292L760 291H759V290V289H760V288V287H759L760 286L761 287V286V285V284L762 283V282L763 281H764L765 280V279H766V278H767V277H768V276L769 275H770V276H771H772V277H771ZM777 276V277L776 278L775 277V276H772V275H776V276H777ZM711 275V276V277H710L709 276H708V275H709V274H711V275ZM826 264H827V265H826V266H825V267H824L823 269H824L823 270H821V271H820V270H819L818 269V268V266L819 262H820L821 263V262H820H819V256L820 257H821V258L822 259L823 260V261H825V262H826V263V264ZM793 249V250V251H792V252L791 251H790V250V249V248H791L790 247V246V245H789H791V246H792V247V248L793 249ZM832 256H831V257V259H830L829 260H828L827 259L826 258H825L824 257H823V256H822V254H823L824 253H823V252L822 251H823V250H824L823 249H824V248L823 249V248H822H821V247V246H822L823 247H824V246L825 245L826 243V244L827 243H826V242V241H827V242L828 241L829 242V243H830V244V245H831L832 246H831V247V248V249V250H832V251H831V252H830V251H829V252H828H830L831 253L832 254V255L831 256H830H832ZM800 239H801V240H800V243L799 245H798V246H797V247H796V249V250L794 252L795 249V248V247L796 246H797V244L798 243V241L799 240V239L800 238V239ZM769 221H770V222L771 223L770 224V223L769 222V221ZM764 215L765 216H764L763 215V214L764 215ZM766 214H765V213L764 212H765L766 213V214ZM714 206V207H713V206H714ZM708 204H709V205H708H707L706 206V205V204V203H707L708 204ZM704 203L705 204H704V205H705V206H704V205H703V206V207L702 208H701V207H700H699L698 208L697 209V208H696V207L697 206H698L699 205H701L703 204L704 203ZM712 204V205L711 204V205H710V204H709V203H710L711 204V203H712V204ZM683 202V206H682H681L678 207L677 208L676 209H675L674 210H673H672H671L670 209H669L667 208L666 207H665L664 206H663H662V204H661L660 203V202H659V201V200L658 198L659 197V196H660V195L661 196L662 197H663V196L664 195H667L673 194L675 195H676V196L677 195V196H678L679 197H680V198H679V199V200H683V201V202ZM755 205V206H754V207V210H753H752V209H750H749V208L748 207H747L746 206H745L744 205L740 204V203H739H738L737 202V201L736 200H735L728 199V200L729 201V202H726L725 201H722L720 200H719H717H716L717 199V198V197H716H715V198H713V199L712 200H711V201H712L711 202H708H707H706V201L704 198L703 197H702H701V196H702V195L701 194V195H700V196H699V199V200H698V201H697V202V203V204H696V203L697 201V200L696 199V198L695 197V196H696L697 195H698V194H699L700 195V194V193H699V192H700L701 191V190H714L715 191V190H718L719 189V190V191L720 192H722L723 191H724L725 190V189H730L733 191L734 192L735 191V192H736L737 193H745L747 195L749 196V197H750V200V201H753L754 202V203V204H755V205ZM738 287V288L737 287H738ZM720 272H721V273H720V272ZM727 268V267H728V268H727ZM777 239V240L776 241V240L777 239ZM831 263V264H830H829V263V262H831V263ZM821 248V249H820V248H821ZM494 296L493 297V298L492 300H491H490V299V298V297V296H494ZM473 298H474L475 299V300V301L474 302V304L473 305L472 306V308H471L470 309H471V310H472V311H471H469V310H470V309H469L468 310V311L469 312H468V311H467H466H465H464V310H462H461H460H459L458 309H457V308V307H458V308H460V307H461H462V303H461V301H463V300H464V299L466 298V297H471L472 298H473ZM522 295V296H523L522 297V298H521L520 297V296H521L522 295ZM524 305H523V306L524 307H523V308L522 307H521V308H519V307H518H517H516H515H514V308H518V309H519V310H518H517L516 309H513L509 310H508V308V307H509V306V305H508V306H507L506 307V308L503 310H502H501H500L498 311H497H496H495H494H493L491 313H490L488 314H486V313H484L483 314L482 315H480V314H479H477V313H476L475 312V311V310H476V309H477V308H476V307V306H475L476 304H477V303H480L481 302L482 301H483V300H485L486 301H487V302H489V301H491L492 302V301H493V303V304H495V305V306L496 307H499V308L500 307L501 306H505L506 305V304H505H504L503 303V302L502 303V302H501H500H499V301H498L497 300L496 299V298H495V297H494L495 296L496 295L498 294H499V295H503V297H504V298L505 299L506 300H507V299H508V298H513V299L514 300V302L513 303V304L514 303V302V301V300H515V299H516L517 298H518L519 299H520V301L521 302V303L520 304H521V305V306H522V305L523 304H524V305ZM559 278H560L561 279H559H557H556L555 278H559ZM555 274V275H554H553V276L552 275H551V274H552V273H553V274H555ZM561 191V190H560H559V189H560L561 188L560 187H559L557 186H556H555H554H553L552 187H551V188H550L545 191V192H544V193V194H545V196L546 197H547V198H548V199V200L547 201H548V202L547 203H548V207V208L547 210V215V216V217V218V221V222H548L547 223V224H548V225L549 226H548V227L547 229V230H546V233L545 235V236L546 237V239L547 240L548 243V244L549 245H548L547 244V243H546H545V244H544H543L542 245H541L540 244H539H538L537 245V246H536V247H533V246L532 245H531H530V244H529V245H528V244V243V242H527V237L528 236V235H529V234V233L530 231V227V226H531V225L532 224V219V218V217V215V214L533 213L532 212V213V214L531 213V212L530 210V209L529 208V207V205H530V204V203L529 202V200V199V198H528V197H530L531 196H532L533 195H532V194L531 191H530V190H531V189L530 188H535V187V186L534 185V183V182V181V180H533H532V179V177H533L535 175H536V174L537 173L538 172H539L541 171H545L546 172V171H547V170H548V171L551 174V175H552L555 178H556L566 180L567 181H569V182L570 183L571 184H572L574 186H575V187V188V189L572 192L571 193H570V194H569L568 193L566 192L565 191H564H563H561ZM551 251V255L550 256V258V260V261L549 262V261V258H548V257V256L549 255V254L548 252V250L549 249H550V250V252L551 251ZM575 279H576V280L575 281H574V280H575V279Z" fill="#6F9C76"/>
<path className="ID-JT" d="M375 267L374 269V271L373 272L374 274H373L374 275V276H373V277H372L371 278H370V279L368 278H367H366V280V281L365 283L366 284V285H365V286V287H367V288H368V290L367 291V292L366 291L365 292L364 293L362 294L361 295V296V297H360H359L358 295V291H357V290V289H355H352V288L351 287V284H350L348 286L347 287V286H346H345H344V287V288L343 289V290H340V289H337L335 288H330V287H329L326 286H324L323 287H322H321L320 286V285H319H318V286L317 285V284V282L316 281V280L315 279V280L314 279H313V278L314 277V276V275H317V274H318V273V271L319 270L320 269H321V270L322 269V268H323V269H324L325 270H331L332 269H333L336 270L340 271H345V270H346V271H348V272H351V271L352 270L353 269L355 266V265V264V263H356V262L357 261H362V262H363V263L364 266H365L368 267H370V266L371 265H372L373 266H374L375 267ZM323 288H321L320 287H318V286H319L320 287H321L322 288H323ZM350 249H351V250H350V249Z" fill="#6F9C76"/>
<path d="M320 269L319 270L318 271V273V274L317 275H316H315H314V276V277L313 278V279H314V280H315H316V281H317V284V285L318 286H317H316V287H315V286H313L312 287V288L311 289H309L305 288L301 287H300V288L299 287L298 286H296V285H295L294 284H293L292 283H291H288L287 282H285L280 281H273L272 280H271V279H270V278V277H271V276H272V275L273 274H274V273L273 272H272H271V271L272 269L273 268H272L271 267V263V261V260L272 259V260H278V259L279 260L280 259V260H282V258V257V254H283V253V251H284L285 252H289L290 253L291 254V255L292 256H295L296 257H299H300L301 258H302L303 259H306V258V257H307V258H309L310 260L311 262H313L314 266V268H315L316 269H318L319 268V269H320Z" fill="#6F9C76"/>
<path d="M282 254V257V258V260H281H280V259L279 260V259H278L277 258V257L276 255V254H277L278 255H279L282 254Z" fill="#6F9C76"/>
<path d="M278 259V260H275H274H273H272V259H271V260V261V262V267H272V268H273L272 269L271 271V272L270 273H269V272H268V271H267H266L265 270L264 269H262H261L260 270V269H259L258 270V269H257L255 270H254H253H252H251V269H249V270H248V269V268H247H249V267H250V266H251V267L252 268V269H253V267L255 266V265V263L256 262L257 263H259V261V257H260V255L261 254L262 253V252L263 251L264 250L265 251V252L266 253H267V252L268 251L269 252L270 253H277V254H276V255L277 257V258L278 259ZM248 263V264V265L247 266V265L246 264V265H245L246 264H247V263H248ZM343 290V289L344 288V287V286H347V287L348 286L350 284H351V287L352 288L353 289H357V290V291L358 292V295L359 297L356 296H355H354L353 295H352H351L350 294H349V293H348L343 290ZM620 252V253L619 252H618V251V250H619L620 251V252ZM614 243H615V244H614V243H613V242H614V243ZM610 238H611L612 239V240H611H610L609 238H610ZM586 203V204H585V203H586ZM588 201V202V203L587 202V201H588ZM561 191H563V190L564 191H565L566 192L568 193L569 194L570 193H576L580 195H583L585 197L586 198L585 199V200H586L587 201V202H586V201L585 200V201H584L585 202V203L584 204H583V205L584 206H585V207H586V208H587V207L588 208V209L590 210V211H592V212H591H590L591 213H592V215H593L594 216H596L595 214H594H596V215L597 216V217V218V220V221H596L594 220H593V219H592L593 220L594 221V222V223L593 222H592V221H590L589 222L588 221L587 222H584L583 223H582H581V224H580V228H581V229V230H579H577L576 229H575H574L573 230V229H572V228H570L569 226V223L570 222V218H571L572 216V215L571 214L570 213H568L566 212V211H565H564V210H565L564 209H563L561 208L557 204V202V201L558 200L559 199V198H560V197H561V196V195H560V194H561V193V192V191ZM580 237V238V242H579L578 241H577V240L576 239L575 238V237H576V236H577V235V234L578 235V234H579V236H580L581 237H580ZM595 231V232H594L593 233L592 234L591 236V237L592 238V239V240H591V241H590V240V239H589V240L588 241L587 240L588 239H587V240L586 241H585V240V239V238V237L586 236V235H587V234V232L586 231V230V228H587L588 227H590L591 226L592 225H594V230V231H595ZM602 237L603 238V239L602 240L601 241H600H599H598L597 242H596V243H597V244L596 245V246H595H594V245L593 246H592L590 243L592 242V241V240L593 239L594 238H595V237H594V236H595V235V234V233H594L595 232H596V231V230V229V224L597 223V222H598L599 221H601H600V222H601L602 223L603 224V225V226V230V228H602V227H601V228H600V229H599V230V231V232H598V233H599V234V235L598 236V237L599 236H601V237H602ZM603 213H604V215L603 217H602V218H601L600 217L599 216H598V214L599 213V212L600 213H603ZM602 205H601H600V204H602V205ZM791 202V203H790V202H789L790 201V202H791ZM830 190L826 193H825V194V195L823 197V198H822V199L821 200V201H822L842 208L834 218H833H832L831 217V216H830L829 215L830 214V212H834V213H835V212H834H833L832 211H830V212H829V213H828H827H826V212H825V211H824L823 210V211L824 212H823V213H822V212H821H820V211H819L820 210V209L819 208V209L818 210V209H817L816 210L815 208L814 207V206H813V205L812 206H813V207H812V206H811V205L810 204V203H809V202H810L811 201L810 199V197L811 198V197H812V196H813V195H814L815 196V195H814V194V193V192H813V193V194H811L810 195V200L809 201V202H808L807 201V202L808 203V204V205H807V206L805 208V210H806L805 211L804 212L802 214L801 215H800L798 214H797V215H795V214L794 213H793V212V210H792V209L791 207V206H795V205V204V203H794L793 202V199H792H791L792 200H791H790V199H789V198V197H788V196V195H787V194H786L784 193V192H782H781H780H779H778H777H776L777 191V190H778V189H776L777 188L778 189V188H781H779V187H785V188H786V187H787L788 188H789L790 189L791 190L792 189L793 188H794L795 186L796 185L797 184V183L799 182H803V183H804V184V187H805V186V185V183H806V186V184H807V185H808V184H809L810 185V186V188V187V186L811 185V184L812 185L813 186V184V183H812L811 182H814V183H815L814 182V181L816 182V181H817H815H814L815 180H816H814H815L816 179V178V177L815 178V179H814H813H812L813 178H814V177H816H815V176H814H813L812 177H811H810V178H809H808L809 177H808V178H807H806H803V177L802 178H801H799H797L796 179H795L794 178H793L792 179H791V180L790 179H789V178V177H788H787L786 178L785 179H783L782 178V177H781L778 176V175V174H779V173L778 174H777V173H776V172V171V170V169L777 168V167H776L775 168V167V166V165H776L777 164H776L775 165H774H773V163V164L772 165H771V164H770H769V163H768H767H766H765V162V161L764 162L763 161V162H764V163H763H762V164H761V163H760H757L756 162L757 161L758 160V159L759 158H761V157L762 156V155V154H763L762 153H763L762 152H763L762 151V150H764L765 149H767V148H768V149H767H769L773 148H774L775 147V146H776L777 145L778 144L779 143L780 142H782V141H791L795 143H797V144H800L802 146L803 147V148H804L808 149V148H809V149H812V148H813V149L814 148H816L818 150H819V151H820H818V152V153H817L818 155L819 156V157H820V158H821L822 160V161L821 162V165L820 166H819V167H818L819 168V174V176V177V178L820 179V180V181H821V182H822V183H823V184V185L824 186V188H825V189L826 190H827V189L826 188V187V186V185V184L827 183H829V184L830 185V190ZM808 218H807H806L805 217H804V216H803V215L805 216V217H808V218ZM828 182H827V181L828 180V182ZM824 174H825L824 175V176H823V174H824ZM821 168V169V170V171L820 172V171V170L821 168ZM745 171L744 172L746 173H745V174L744 173H743V174H742H740H739H738L737 173H736H735H734V172H732V171L735 170V169H737L738 168H743V167H744V168L745 169H746V170V171H745ZM736 157L735 158H734H732V157H733L735 156V157H736ZM758 154H759V155L758 158L757 159V160V161H756V160H755H754V159H753L752 158V157V156H751V155V154L750 153H751L753 152H755H758L759 153H758V154ZM756 149H755V150L754 151H752L750 152H747H746V151V150H754H753L754 149H753H756ZM751 142V143L750 144L749 145V144V143L748 144H747V143H749V142H751ZM763 138V139H764V140H763V141H762H761L760 140H759L758 141H757H756V140H755V139H754H753V138V137L752 136H751V135H750V136V137H751L752 138V139L753 140H756V141V142H754L753 143H752V142H751V140H749V141L748 142V141V140V139H747H746H745H744H743V138H742H746L745 137H746L745 136V137H744H743V136H744H745L744 135H745V136H746L747 135H750L751 134L752 135H753L752 134H754L756 135H760V136H761V137H763V138ZM762 113V112L763 113H762ZM808 182L809 183H808H807V182H806H808ZM735 142H736V143H735V144L734 143V142H735Z" fill="#6F9C76"/>
<path d="M616 174L617 175H616V174ZM614 172H613V171L614 172ZM547 112H548V113H547V112ZM571 193L572 192L575 189V188V187V186H574V185L572 184L570 183L569 182V181H567L566 180L556 178H555L552 175H551V174L549 171L548 170H547V171H546H543L542 170H541V171H539L538 172H537H536V171V170L537 169H536V167H535L534 166V165V163L533 162V161L530 160H529V159H530V158L531 157H532V156L531 155V150H532V149L533 148V147H534V146L535 147V149L536 150V151H537V150V149V148L536 147L535 146V144V143V138H536V137V136H535H534H533V135H532V134H533V133H534V134H535V135H536H537V132L536 130H535V129H536L537 128V127V126L538 125V124H540V121V120L541 119H542L543 118H544V115H545V114H546V117H547L548 118H551L552 117V116L553 115V114H555V113V111H556V110V108V107L557 108V107H558H559L561 108V107L562 108H563V109H568V108H569V109H568V110V111H569V112H570V113H572L578 112V113H579V114L580 113H583V114H582L580 115H577L576 114V115L574 116H572H571L570 117H569H567H566H565V118L564 119V120H563L564 121V122H566V123V124V125L565 124L564 125H563H562V126H561L560 125H559H557H556V124H555H554L553 123H549L548 124H547V125H546L545 126L544 128L543 129L542 130V131V132L541 133V134L540 135V137V138V141L541 142V143V144V147L544 151L545 152H548V153H550V154L551 156V157V158L552 159V161H554L556 160V161H559L560 162H561L562 161L563 160V158V157H564L565 156L566 155L567 154L568 152L569 151H571V150H572V151L573 152H576L577 153H578L579 152H582V151V150L583 149H598V148H597L596 147H594H595V146H599L600 145H604L606 146H607V147V148H608V149V151H607V154H606L605 155L604 154L603 153L602 152V151L601 150L600 151H599L597 152H596H595L594 154V155H593V156H592V158H591L590 159V160H589V161L587 162V163H586L585 164L584 165L583 166L582 165L581 166H580H579V167H578H576V168H575V169L574 170V171L573 172H572H570L569 171H568V170V169H567H566L565 170H566V171V172V173H567V172H568V173H569V174H570V176L571 177H573L574 178H575L576 179V180L577 181V182H578V184H579V185L580 186L579 187L580 188H581V189H583V190V191H585V192V194L587 196V195H588V196V197V198H587L586 197V198L585 197L583 195H582H580L576 193H571ZM616 172V173L615 174V173L614 172V171H615L616 172ZM602 169V170L601 171H600V170H601V169V168L602 169ZM609 159H610V160V161V162H609V163H608V164H607V163L606 164V163L605 162H604V166L603 165L602 166V165H601V164H602L603 163L602 161V160H601V161H600V162V163H599V164L597 165H596L595 162V160L596 159L597 157H602V156H603V157L604 158H603V159V160V161H604L605 160V159H606V158H607L608 159V158L609 159ZM576 142H577V143H578L577 144L576 143V144H575V143H574L573 144V145H572V144L573 143L574 142H576ZM580 140V141V142H579H577V141H578V140H580ZM583 139H582V138H583V139ZM586 139L587 140V141L586 140V139H585H584V138H586V139ZM571 137V136H572V137V138H571V137ZM606 167H607V168H606L605 169H604L605 168L606 167ZM582 141V142L581 141V142L580 141V140L581 139V140L582 141ZM611 166V167V168H610H609V167H608V166H609V165H608V164H609V163H610V165V166H611ZM626 173V174H625V173H626ZM685 161L686 162H685H684V161H685ZM694 89V90H693V89H694ZM702 87L701 88H700V87H701V86L702 87ZM660 181V182V183H659L658 182V181L657 179V178H656V176V174V173H658V174V176V177L660 181ZM665 170L664 171H663H662H659H658L657 172H656V171L654 172H650H648H647V171L646 170V171H645V170L646 169H650L651 170H653L654 169H661L664 170H665ZM645 169V171H644H642H641H640H639V172H638H637H636V171H635L634 172H633L632 173H630V174H629H627V173H626L625 171V170L626 169V167H627L628 166H629V167L630 166H632L633 167H636L637 168L638 167V168H639V169H641H640L641 168V167L642 168V169H643V168H644V169H645ZM701 165V167H700V168H699L697 167H695H692L691 168H689H688L687 167L686 166V165V164V163V162H688V161L690 160H692L693 161L694 162H697L698 164H699V165H701ZM692 158V159H691L690 158H689L688 159L687 158H688V157H690L691 158H692ZM684 149V150H683V149H682H681V148H682V146H683V147H684V148V149ZM696 149V150H695V151H694H693H692L691 150V149H690L689 150H687V148V147V146H686H685V145L684 144V143V142H685V141V140L686 141V142H687V141H688V140H690V141V142H691L692 143V144L690 145V146V147H691V148H695V149H696ZM683 144H682H680L681 143H680V142V141H681L680 140L681 139H684V140H683V141H684V142H683V143V144ZM728 137H729V138H728L727 136L725 135V134H724V133L727 135L728 136V137ZM687 134L686 133V131H687V134ZM686 126V128H685V127L686 126ZM686 121H685L686 120V119H687V120V121H686ZM685 118V119H684V118V117H685V118ZM691 138L692 137V134V133V132V131V128V127H691L690 126L689 125V123H688L689 122V119H690V118V117H689V116H688V115V114V113H687H686V112L687 111H686V110V109H687V108L688 106V105H689V104L688 103L689 102V101V100L690 99L691 97V96H692L693 95V94L695 92H696V91L697 90L698 91L699 90V91L698 92V93H697V95H696H695V96V97V98H697V99H698V101V102V103H699L698 104V105V106V107V108H697V109H696V111H695L693 112L691 113V114L690 115L691 116L692 117H693V118H695V117H696V114H697L698 112H701V111L702 110L701 109H700L701 108V107H702V106H703V105H705V104H706V103H712V104H711V105H712V106L713 107V108H712V112V113H711L709 114H708L707 115H706L704 116V117V118H703V117H702V118V119L703 120H704V121H707V122H709V123L710 122V123H711V124V127H713V128H715V129H716V130L715 129H714L712 128H711H710L709 127H708L707 126H706H705H702V125H701H699L698 124H697V125H696V127H695V128H696V131V132V135L697 136V139H698V140V141L699 142V143L700 144V145H701L702 148L703 149L705 150V151H706V152L705 151H703L702 150H703L702 149L699 148H698V147L697 145L696 143V142H695V141L693 140H692V139L691 138ZM711 85L712 86H711V89L709 91V92L708 93L705 94H704H703L704 93L703 92V89H702L703 88V87L704 85L705 84H706V83H707H708V82H710V83L711 84V85ZM666 107V108H665V107H666ZM705 153L706 154H705H704V153H705ZM233 139V140H232H231V139H233ZM213 120H214V121H213V120ZM234 118H236L235 119H234H233V118H234ZM217 118H218V119H217V118ZM213 116V117H212V116H211H213ZM214 118H213V117H212H214V118ZM220 116L221 117L222 118H221L220 117V116ZM213 118V119V120L212 121L211 120L210 119V118V117H211V116L212 117V118H213ZM219 117H220V118V119L219 118H218V116H219V117ZM222 114L223 115H222H220V114H221H222ZM239 113L240 114V115L239 114V113ZM294 113V114V115L293 114V113H294ZM212 114H211H210V113V112L211 111V112V113H212V114ZM226 111V113H225V114H224H223H222V113H221V112H222V111H223L224 110L225 111V110H226V111ZM236 112V114V115V116H235V117H233V116V115H232V114H233V113H232L231 114H230H229H228V113V112H229L230 111V110L231 111V110H232L233 111L234 110H235V111V112H236ZM324 84L323 85L322 84V83H323V84H324ZM268 79L267 80V79V78L268 79ZM319 75V74H320V75V76V77H319H318V76H319V75ZM298 74L299 75H297V74H299H298ZM259 74L260 75H259V76H258L257 77H258V78H257V77V76V75V74H258V75H259V74ZM268 71V73V72H267V70H268V71ZM268 67H269L268 68L269 69H268V70L267 69L268 68V67ZM310 57V58L309 59V60V61H308H307L306 62L305 61H304L305 60H306V59H307L308 60V59H307V58H306H304H303V57V56H302V55V54L303 53H304L306 51V50H307V52H308V53L309 54L310 55V56V57ZM302 39H303L302 40V41H301V40H302V39ZM234 142L235 143L234 144V145L233 146H232V145L231 146V147H230V145V144H229L228 143L229 142V141H230V142H231V141L232 140L233 141H234V142ZM242 138L243 139V140L242 139L241 140H242H240V139H238V138H236L235 139H234H233V138H232V137H233V136L234 134H235L237 135H236V136H238V138H239V137H241L242 139V138ZM233 132V133H232L231 132H232L231 131V130L232 131L233 132ZM237 132V133H236V132H235V131H234V130V129L237 132ZM228 120L229 121H228V120ZM229 120H228H227V119V118H229V119V120ZM228 116V117V118H227H226V117H225V116V115H226V116H228ZM200 128H201L202 127V128H200ZM205 121V122L204 121H205ZM206 118V119H205V118H206ZM150 83L152 87V88L153 89L154 90L155 91L156 92H157L160 93V94H161V95H162V97V98H163V97V96H162V94L160 92V89H161L162 88L165 89V90L168 91L170 93V94V96L171 97V99L172 100L174 101H179L184 105L186 106L187 107V109V110H188V114L190 116L192 118L193 119H199L201 120H202L203 121L205 123V125L204 126H203L202 127H201L198 128V129H196L195 130H194V129H193H192H194V130L195 131L196 130L197 129H201L202 128H203V127H204L205 126H207V125L208 124H210V123H211L212 124H213L214 125L215 126V128L216 127H217V128H218V129L219 133H220V134H219H217V135H216L215 134V135V136H214H213V137L212 138H209V139H211L212 138H213V139L212 140V141H210H214V142H215V143H214V144H211H212V145V146H211V147L210 148H211L212 149H200L199 150L198 151L197 152V153H196V154H195V155H192V154H191V153H190L189 152V151H188H187H186H184H183V152H182V153L181 154H179V153H178H175L174 152L172 151L170 149L169 148L165 143L164 142H163V141L161 140L160 139V138V137L159 136V135H161V133V131V130L160 129H159L158 128V127H157L155 126V125H154H153H152V126H151L149 125V123H148L147 121L148 120V119V118V117V116V114V113V112H149V111H148V110H147V109V108H146V107H145V106H146L150 104H151L152 103H153V102V101L152 99V98H151V97H150V96V94V93V89V83ZM209 121V122V123L207 124L206 123V122L207 121V120H209V121ZM204 118L205 119H204V120H203V119H202L201 118H198H194L193 117L192 116L193 115H194L193 113V111H194L195 112L196 113V114H199L200 115H202L204 117V118ZM206 116H207V117H205L202 116V115H201V114H200H199V113H198L197 114H196V113H197V111H201L203 112L204 113L205 114L206 116ZM193 109V110L192 112V113L193 114V115H192V116L191 115H190L189 113L188 112V111L189 110H188V109V108V107V106H190L191 108L193 109ZM193 107L194 108V109H193L192 108L191 107L190 106H189L186 105H185V104L184 103V102H186L187 103H191L193 104V107ZM178 93L179 94V95V96L178 97V98V99H177V100H176H174L173 99V98L172 97V96V93H175L176 92H177L178 93ZM217 139H218V140H219L218 141H217H216L215 142V141H213L212 140H213L214 139L215 138L216 139H217Z" fill="#6F9C76"/>
<path d="M566 125V124V123V122L565 123V122H564V121L563 120H564V119L565 118L566 117H571L572 116H574L576 115H580L582 114H590V115H592L593 116H594V117H595L596 118L597 117L598 116V115H601V116L602 117H603V118L604 119V120H605V121L608 122V123L609 124V125V126L608 127V128H607H605L604 127H603V126H602V125L601 124H600H593H592H591H585H583V125H582L581 124H580L579 125H575L574 124H573H572V123H571H570V124H569H568H567L566 125Z" fill="#6F9C76"/>
<path d="M608 128V127L609 126V125V124L608 123V122L605 121V120H604V119L603 118V117H602L601 116V115H602L603 116V115H604L605 116H609L610 117L611 116H612V117H618L619 116L621 115H622L623 114H625V113L626 111L627 110H631V109H630L629 108V107H630L631 106H633L634 105H635L636 104H635V103V102L637 101H638V100L639 99V100V101H642V103H643V104L644 105H642L641 106L640 107L639 111L638 112V113L637 114V115H635V116H634H633V117L632 118L631 119V120H630V121V122H629V124H628V125H627H626V126H623L622 127L621 126L620 127H619H617H616H615V128H614H613H612H611H610H608ZM644 103H645L644 104V105V106H643L644 105V103ZM647 87H648V88H646V87V86L647 87ZM647 79V80V81V82H646V81V80V79V78H647V79ZM651 65H652V66L651 67L650 66L649 65V64V63H648L647 62V61V60H649V61L650 62V63H651V64V65ZM673 58H674L675 59V60H674V59L673 58ZM671 55L672 56V57H671L672 56H671V55ZM676 48V49H677L675 50L674 51V54L673 55V54L672 55V53H673V51L674 50H673L672 49L673 48H672V47V46L673 45V44H675V45H676V46L675 47L676 48ZM646 92V93H645V92H646ZM642 98V99H641V98H642ZM537 173L536 174V175H535L533 177H532V179V180H534V181V182V183H535L534 184L535 185V186V187V188H533H531H530L531 189V190V191L532 194V195H533V196H531L530 197H529H528V198H529V199V200V202L530 203H529V202L528 203V202H527H526L525 203H524H523H522H520V204H519V205L518 204V202L517 201V200V199V198L516 197V196H515V195L516 194V195H517V194V192H518V191V190H517H515V189V188L516 187V186H519V185H520V184L521 183L523 182V181L522 180V178H523L522 177L523 176L524 174V173H527V170L526 169V166V165V162V161V160V158L527 157L528 156H529V155V153L530 152V151H531V150V155L532 156V157L530 158V159V160V161H533V162L534 163V165V166L535 167H536V168L537 169V170L536 171V172H537V173ZM179 154H181V153H182V152H183V151H189V152L190 153V154H192V155H195V154L196 153H197V152L198 151L199 150L200 149H213L212 150H214V151H215V152H216L217 153H218L219 154L220 155V154H221V153H222L224 154H226L227 155H228L229 154H231V159L232 160V165L233 166V167L234 168H233H232V167H231V168L230 169L228 170H226L222 169H221L214 173V176V177V178H213H212V179V180H213L212 181L209 179V177H208L207 178V179V180V181H206H204H202L201 180L200 181V182H201L199 185H198L197 186H196V187H195V188H194H193H192L191 187H189V186L188 187L187 188H186L185 189H184V188H183H182L181 187H180L179 186H178V185H177V184L176 183H175V182L174 180V179H173V178H172L170 179V177L169 175V174H168V173H167V172L166 171V167L167 168H168L172 167V168H173V167H174V166H175L176 164H177V163V162V160V159H179L180 158V157V156H179V155V154Z" fill="#6F9C76"/>
<path d="M185 189L186 188H187L188 187L189 186L190 187H191L192 188H195V187H196V186H198V185H199L201 182H200V181H201V180L202 181H208V180H207V179V178L208 177H209V178V179L212 181H213V180L212 179V178H214V177V176V173L221 169H222L226 170H230V169L231 168V167H232V168H234V169L233 170V171V172L234 171H235L236 172L235 173V174H236H238L239 173V174H240L241 175V177H240V178L238 180H237L236 181H235H237L238 182V183L237 184V185H236L235 186L234 187V188H235V187L236 186L237 185H238V183V182H239V181L240 180V179H241V180V181H242V180H243L244 181H246L247 180H248L249 181H254H255L256 182L255 183V184V185V186H256V187H258L259 188V191L260 192H263V193H264V196V197V198L263 199L262 200H261V201L260 202L259 206V207L260 208L261 209L262 210V211L260 213V214L259 216H258H257V215H256V214H255V213V212H254V211H253V210H252L251 209H250V208H249V209V210L248 211H247L246 212V213H245V214L244 215V216H243V217H240L237 219H234L232 220L231 221L229 222V223V225V226V227V228V229H230V230L229 231H226L225 232H224H223L222 231H221H220V230L219 229H218V228L217 226V225L216 224V221H215V220L214 221L213 220H211V219H209L208 218H207V216L206 215V214V213H205L204 214H203L202 213H201H200L199 212H198V211H197V210H196V209H198L200 207V206H201V205H203L204 204V202V201H203H202H201L200 200H199V199H198L197 200L196 201L195 200H194V199H193V198V197V196V195H191H190H189L188 194V193V192L187 191L186 190L185 189Z" fill="#6F9C76"/>
<path d="M219 229L220 230V231H222L223 232H225L226 231H229L230 230V229H229V228V227H228V226H229V225V223V222L231 221L232 220L234 219H236L240 217H242L243 216H244V215L245 214V213V212H246L247 211H248L249 210V209V208L250 209H251V210H253V211H254V212H255V213V214H256V215H257V216H259V218V219L260 220V221L261 222V224V225V226L260 227V230L261 231V232L260 233V239L259 240L260 242L259 243V245V247V249H258V250H257V249H255V248L254 247V246H253H252V245L251 244H250L249 242H248V243V244H247H246V245H247V246V247H246V248H244L241 246L240 245H238L237 243H235H234V244L237 249V250V251H234V250L233 249V248H232L231 247L230 246H229V245V244H228V243H227V242H226H225L224 240L223 239V238V237H222H221V236V235L220 234H219V233H218V232H217H216V231L217 230H218L219 229ZM240 248V249H239V248H238H240Z" fill="#6F9C76"/>
<path d="M171 179L172 178H173V179H174V180L175 182V183H176L177 184V185H178V186H179L180 187H181L182 188H184V189H185L186 190L187 191L188 192V193V194H189L190 195L191 194L192 195H193V196V197V198L194 199L195 200H196H197L198 199H199V200H201V201H203L204 202V204L203 205H202L201 204V205V206H200V207L197 209H196V210H197V211H198L199 212V213H202L203 214V213H206V214V215L207 216V218H208L209 219H210L211 220H215V221H216V223V224L217 225V226L218 227V228V229H219L218 230H217L216 231H215H214V230H213H212H211V229H210V228H209V227L207 225L204 224L202 223L201 222V221L197 218L194 216L191 213H190L189 212V211H190V210L189 209V208H188V207V206L185 204L181 201L176 198L175 197V196L172 192V191L170 188V187H169L167 186L166 185L164 183L165 182L167 181L168 180H169L170 179H171ZM192 241H191V242H190H189H188L186 240V239H187V238H188V239H189L190 240H191L192 241Z" fill="#6F9C76"/>
<path d="M148 119V120L147 121L148 123H149V125L151 126H152V125H155V126L157 127L158 128L159 129H160V130H161V131V133V135H160H159V137H160V138V139L161 140L163 141V142H164L165 143L168 148L170 149L172 151L174 152L175 153H179V154V155V156H180V157V158L179 159H178H177V160V162V163V164H176L175 166H174V167H173V168H172V167L168 168H167L166 167V171L167 172V173H168V174H169V175L170 177V179L169 180H168L167 181L165 182L164 183L162 180L161 177V176V175L162 174L161 173V172V171L160 170L159 169L158 167L157 166V164L156 163L155 162V161V160L154 159H153H152V158H153L152 157H151V156H152V155V154L151 153V151L150 150L147 147V146L146 145L145 144L144 143L143 142H142V141L141 140H140V139V138L139 137V136V135V134L138 133L137 132H136L135 131H133H132V130L131 129H129H128H127L130 126L131 125V124H134L135 123H137L138 124H140V125H141V124H142V123V121H141L140 120V119V118H139V117H138V116L139 117H143V118H145L146 119H147H148ZM154 196L155 197H154V196ZM152 197V198L153 199H154L153 200V199H152V198H151V197V196L150 195H149V194L148 193V192V189H149L150 190L151 191H152V192L153 193V194V195V196H152V197ZM148 187V188L147 189V190H146L145 189V190H144V189V186H143L144 185H143V184L144 183V184H145L146 185L147 186H148V187ZM141 179V180H140H139H138V179H136V178L135 177V176V175L136 174H137V175H138V176L139 177L140 178V179H141ZM130 166V168L129 167V166V169H128H127H126L124 168H123L122 167L121 166V164L117 159V158H116V157L117 156V155V153H120L121 152H123V153H122L123 154V155H124V156V157H125V158H126V159V160L127 161L128 162V163L127 162V163L128 164V165H130V166Z" fill="#6F9C76"/>
<path d="M150 83V89V93V94V96V97H151V98L152 99L153 101V102L152 103L151 104H150L146 106H145V107H146V108H147V109V110H148V111H149L148 112V113V114V116V117V118V119H147H146L145 118H143V117H141H140H139L138 116V117H139V118H140V119V120L141 121H142V123V124H141V125H140V124H138L137 123H136H135L134 124H133H131L130 126L127 129V128V127H126L127 126V124V123L126 124V122V121L125 122V118H124V117V116L123 112L121 109V108V107L120 106V105V104H119V103H120V102H121V100H120V99L119 98V99V100L118 99L116 96L115 95L113 94H112H111V93H110L109 92L108 91L107 90V88V86H106V85L105 84V83V82V81H106V80H105V79H106V78H105L104 77V76H103V75L102 73H103V72V71V70H102V69H104V68V67H103V66V65L102 64V63H101V61L100 60L101 59L102 58V57V56L103 57V56H104V55H105V54V53V52L106 51V50H107V49H110V51H108V52H109L110 51L111 53H113L114 54L115 55V54L116 55V56H118V58H119L120 60L122 61H124L125 62H126V63L128 64L130 65L132 66V67H133L134 68V69H135V70H138L139 71L140 72L141 73V74H142L143 75L144 76V79V80H143V81H144V80H145L146 81V82V83L147 84V83H146V81H147V80H148V81H149V82V83H150ZM115 143L114 144H115V145H114V144H113V145H112L111 144L112 143V141V140H113V139H114V140L115 141L114 142H115V143ZM114 137V138L115 139H116V140H115L113 137H112V135H111V134H110H113V135L114 136V137ZM116 101V102H114V101H113V100H114L115 101H116ZM103 114V115V116V118H102V121L101 123L100 122V123L99 122H98V121V120V119H97V117H96L94 116L95 115H94H93L92 114V113L91 111V110H90V109H89V108H88V107H87V106H86L87 105L88 106H90V105H91V104V103H92V104H93V105H95V106L97 107V109L99 110V111H101V112V113H103V114ZM115 131L116 130H120L121 131V132H120H117H115V131Z" fill="#6F9C76"/>
<path d="M110 49H108H107V50H106V51L105 52V53V54V55H104V56H103V57L102 56V57V58L101 60H100L101 61V63H102V64L103 65V66V67H104V69H102V70H103V71V72V73H102L103 75V76H104V77L105 78H106V79H105V80H106V81H105V82V83V84L106 85V86H107V88V90H106L104 89H102H101H100L99 87H98V86V81L97 78V77H95L94 76H93L91 74V73L90 71V70H88V69L85 64L83 63V61H82V60H81H80H75V59L74 58L71 54L69 53V52H68H67L66 51V50H65L63 48L61 46L60 45V44L58 43L57 42V41H56H55V39H54V38V37H53V36L52 34V33H51V32V31L50 30V29H49L50 28V27V26V25L49 24V23H52L53 22H55V23H56V22H57L60 23L62 24H63V25V26L64 27L66 29H68L71 30H75V31H76L78 30H81V29H82L83 30L84 29L85 30H86L87 31H88V32H90L95 30L98 33L101 36H102V37H103L104 39V41L105 42V43L104 44H108V45H109V46H110V49ZM88 93H87V94L86 92H88V93ZM78 92V93H77V92H78ZM91 91V92V93L90 92L89 91L87 90H90L91 91ZM74 86V87H73H72H71V86L70 85L66 83L65 82H64V83L63 82H62V81H61V80H60V79H59V78H60L61 77H60V76H63V77H64V78L65 79H67V80H68L67 81H68L70 82L71 83H72V84V85H73V84H74V86ZM49 22V23H48H47V22H49ZM47 21L46 22V21V20H45H47L48 21H47ZM52 17L53 18V19L52 18V19H51L50 18V17H49H51H52ZM361 191H362V190L363 189L364 188H365V187V186H364V185V183V181L362 176V175V173V170V169V168V167V166H361V167H360V166V165H361V164H364L365 163L366 162H367V161H368V160H369V159H370L371 158H372L373 157V156V155L374 154L376 153L378 152L379 151L381 150H383V149V148H386L387 149H389L391 148H393L396 146H397L399 145H400V144H403V143H405V144L406 145V144L407 143V142V141H406V140H407L408 139V138H410V136L411 135L410 133V132V131H409V130H408V129L409 128H410L411 129H412V128H413L414 127V126V125H415V124H416V123H417L418 122H421V121H426V122H428L434 121H435V120H438V119H440L441 120V121H442V122V123V124H441L440 127V128V129V130L441 131V132V134L440 135V136V137H442V136H443V135L445 134V133H448V134H447V136V137H446V140V141H447V142V144L448 145V146H449V149L450 150V151V152H451V153H454V154L455 155V156H456V155H457V158V159L456 161L455 162H454V161L452 162H450H449V163L448 169H447L448 170V171V172L447 173V174L445 177H443L442 178H441L439 179H438V180H439V181V182V183H438V184H437V185V186V187H436V188H434V189V190H432H431V191L430 193L427 202L426 201V200H427V199L428 198V197L427 198V199L426 200L425 201H424V200H423V197V199L422 200L421 201H420L419 202H414V197H413V196H411V197H410V198H408V197V196H407L408 198V199L407 197H406V196L405 195L404 194H403L402 192V193V194H401L400 195V196H402L395 201H394V202L393 201V202H392L389 200H388L387 199L385 200L384 201L381 204H380H379H378V202V193L377 191V190H376V189L377 188H376V189V190V191H375V192L373 193H372V192H371H368L363 194L361 195H360L358 194H357V193L358 192H359L361 191Z" fill="#6F9C76"/>
<path d="M427 202L430 193L431 191V190H434V189V188H436V187H437V186V185L438 184V183H439V182V181V180H438V179H439L441 178H443L444 177H445L447 174V173L448 172V171V170L447 169L449 163V162H452L453 161H454V162H453V163L452 164H454V165V166L455 167V169L456 172H455V173H456V174H457V177V178L458 180H459V179H464L468 180H470L472 181L471 184L470 185V184V183H469L468 184V183L467 184V185H466L467 186V185L468 184V185V186V190V191L467 192L466 193H465V192L464 191V190H463V191V192V193H464V194L466 195V196H464V197V198V199H463V198L462 199L461 201V204L460 205H458V206H457L456 207L452 209L447 211L442 213L438 214L435 216L434 217L433 216V215L434 213L433 212V206L432 204H431V203L432 200H431V201V203H430H429L428 202H427ZM458 228V229H456H457L458 228ZM468 201H469V205H468L467 204V203L468 202V201ZM466 207L467 208V209H466V210L467 211H466V212H465V213H464H463V214H462L461 213H462V212V211V209L461 208V206V204L462 203L463 201V200V199H464L465 198H466V202H467V203H466V204V205H467L466 206L467 207H466ZM452 306V307H453V308L452 309V308H451L450 307L451 306H452ZM453 298L454 299L455 300V301H454V302H453V303H451L448 305H447V306H446V307H445V308V309L444 310H443V309L444 308V307V306H443V305H442V304L441 303L440 302H439L437 301L436 300H432V299L430 297V294H431V295H435L438 296H441L442 295L443 294H446L447 295L451 296L452 297L453 298ZM281 192L280 193V194H279V193H277V192H278V191H279L280 192H281ZM284 190L285 191H284H283V190H285H284ZM290 191V190H293L292 191L291 192H290V191ZM308 190V191L307 192V193H306V194V195V196H305H304V197V198H303H302V197V196H301L300 195V194H299V195V196L297 197H296V198H294V197L295 196V195H294V194V193V192H295L294 191V192H293V191H294L295 190L294 189H295V188V185H296L297 184V185H298V184H299L300 185H303H304L305 186V187H306L308 188V190ZM278 184L279 185H278L277 186L276 187L275 191V192L276 193H277V194V195H276H274H273V194H272V193H271H270V192H269L265 190H262L261 188V184L262 183L261 182H260L259 181V180V179V178V177L258 176H256H255V175H254H253L252 176H249L248 175H247H246L245 174L246 173V172H247L249 171L250 170L251 169V168H250V167V166H251L252 165H254V164H255V165V166H256L257 167L256 168V169H259L258 168V166H257V165V164H259L260 163H261V164H262L263 165H264V166H263V167H264V168H265V169V170L266 171V174L267 177L268 180V181L269 182L270 183H271L274 184H278Z" fill="#6F9C76"/>
<path d="M425 105L428 104H429L431 105V106H432L434 107H435V108H436V107L437 106H440V107H441L442 108V110H445V111H447L448 112L449 111V110L450 109H453V108H454L455 109H456V108H457V107V106H458V105H459L460 104H461V103H462V101H463L464 100V99V98V97L465 96V95V94L466 93V92H468V91L467 90L466 89H470V87V85H472L473 86L474 87L475 86L476 85L478 84L479 85L480 86L481 85V83L482 84H483L484 83H485L484 84H485V85H486L487 84L488 83L489 84H493V85H494V87L495 88H496V87H497L498 86L499 87V86H500L501 87L502 88V89L501 90L500 91H499V92H498H497V93H498L497 94H496L495 93V94H497V95L498 94V96H497V97H498V98H500V99H501V100L503 101L504 102L506 103L507 104H509L508 105H509V106H510L511 107H512L513 109H515V110H516V111V112L517 113H520V114V115H519V116L517 117V118H516H515L514 117H513L512 118H511H510V117H508V118H507V117H504L503 116H502V115H501V114L500 113V112H499H498V113H499L500 114V116L501 117V118H500H499V117H498V118H497H496L495 119V121L494 122V123L493 124H492L493 125L492 126L491 127V128V129V130H490V131V132V133H491V134V135H490V136V137L489 138V139V140H490V141V142H489L490 143L489 144H490L492 142H493V143H492H491V144H492V145V146V147H491H490V148H493V149H492L491 150H490H489V151H488H487V150H486L485 151V152L484 153L482 156H481V157V158H480H479L477 159V158V157L476 158V157L475 156V157V158H476V159V161H475L473 162H472L471 163V164L472 165V166H471L469 167H467L466 168V169H465L466 170L467 169H469V170V171L470 172H469L470 174L469 175H467V176H466V177L467 176H468V177H471V178L472 177V181L470 180H468L464 179H461H460H459V180H458L457 178V177V174H456V173H455V172V167H454V166V165V164H453H452L453 163V162H455L456 161L457 159V158V155H456V156H455V155H454V154V153H453H451V152H450V151V150L449 149L448 147V146V145L447 144V142L446 141V140V137L447 136V134H448L447 133H446H445L444 134L443 135V136H442L441 137H440V136V135V134L441 133V132V131L440 130V129V128V127L441 124H442V123V122V121H441V120L440 119H438V120H435V121H434L428 122H426V121H425H422H421V122H420H418L417 123V122V121H418V120H419V119V118H420V117V116H419H418V115V114H419L420 113H421V112L423 111L424 110H425V109V108V107V105Z" fill="#6F9C76"/>
</svg>
